Patient4_TMGait_0pt4_02_right_36_EMG.mot
version=1
nRows=26
nColumns=33
inDegrees=no
endheader
time	1LAddLong	2LGlutMax	3LGlutMed	4LIliopsoas	5LSemiMemb	6LBicFemLong	7LRecFem	8LVastMed	9LVastLat	10LGasMed	11LTibAnt	12lTibPost	13LPeroneusLong	14LSol	15LExtDigLong	16LFlexDigLong	17RAddLong	18RGlutMax	19RGlutMed	20RIliopsoas	21RSemiMemb	22RBicFemLong	23RRecFem	24RVastMed	25RVastLat	26RGasMed	27RTibAnt	28RTibPost	29RPeroneusLong	30RSol	31RExtDigLong	32RFlexDigLong
48.435	0.002289	0.089111	0.002441	0.014648	0.13412	-0.004578	-0.019073	0.000916	0.036011	-0.18082	0.014648	0.014191	0.001984	0.097961	0.002136	0.081787	-0.008392	0.06424	-0.099792	0.03952	0.36438	-0.031433	-0.168	-0.025787	-0.014038	0.012665	0.016022	-0.029602	0.30914	-0.40314	0.002136	-0.017548
48.436	-0.003357	0.13275	0.048218	0.005646	0.033264	0.17517	-0.048828	0.011292	0.007477	-0.15396	0.011597	0.012665	-0.10986	0.26916	-0.005035	0.047913	0.037842	0.06958	0.003967	-0.023651	0.23377	-0.033875	-0.18509	0.009155	0.015869	0.007629	-0.007935	-0.023041	0.28595	-0.47333	0.000763	-0.015564
48.437	-0.015259	0.1442	0.046692	-0.001068	-0.046692	0.21622	-0.083923	0.015411	0.056915	-0.036469	0.012817	0.010986	-0.18875	0.33127	-0.003357	-0.016937	0.041504	0.1091	0.052643	-0.083466	0.17838	-0.045929	-0.19089	0.070343	0.019073	0.015106	-0.020599	0.035248	-0.12314	-0.23727	0.005341	-0.011597
48.438	-0.001984	0.14679	0.040283	-0.005798	-0.10757	0.075073	-0.13504	0.016174	0.17883	0.067596	0.004272	0.007172	-0.0914	0.30548	0.012817	-0.010071	-0.019684	0.047302	-0.52765	-0.12421	0.12161	-0.053558	-0.2269	0.07019	0.016937	-0.008087	-0.067444	0.025635	-0.40237	-0.020294	0.004272	0.006104
48.439	0.02182	0.19348	0.037689	-0.001678	-0.15961	-0.050049	-0.17853	0.015717	0.32471	0.10208	-0.005493	0.005188	0.20432	0.20142	0.023804	-0.003967	-0.034485	0.10666	0.092163	-0.087891	0.18097	-0.11765	-0.25421	0.066528	0.032043	-0.022278	-0.043793	-0.035858	-0.57129	0.53604	0.005341	-0.019226
48.44	0.032806	0.25818	0.037231	0.012665	-0.02594	-0.11154	-0.11292	0.004883	0.38208	0.15839	0.000153	0.006104	0.21316	0.08667	0.000305	0.001984	-0.01236	0.13748	0.030823	-0.005798	0.21545	-0.16113	-0.19424	-0.003204	-0.010681	-0.011444	-0.010529	-0.31906	-0.31616	0.69687	0.005951	-0.021362
48.441	0.029144	0.27115	0.02182	0.003204	0.11139	-0.17288	0.03479	-0.010071	0.30792	0.12955	-0.005646	0.005493	0.13336	0.097504	0.027161	0.007629	0.006409	0.066681	-0.13886	0.053406	0.081024	-0.1297	-0.18601	0.022125	-0.005646	-0.006866	0.00061	0.085449	-0.10239	0.14603	0.002441	-0.023193
48.442	0.011902	0.20844	0.023499	-0.003662	0.07431	-0.093536	0.006256	-0.009155	0.14511	0.067902	-0.008087	0.010986	0.76752	0.14358	0.007477	0.00061	0.002899	0.10864	0.067444	0.11063	-0.081177	-0.14297	-0.18936	0.02243	-0.007629	-0.006866	-0.004578	0.13138	0.10651	-0.61966	0.002136	-0.021362
48.443	-0.005798	0.15747	0.019531	0.004425	0.02533	-0.05188	0.003204	-0.00351	0.072937	-0.11032	0.006104	0.011139	0.34119	0.093384	0.004578	-0.003204	0.025482	0.112	-0.14404	0.11734	0.07843	-0.13351	-0.18692	-0.017395	-0.003204	-0.011597	0.011597	0.043793	0.24597	-0.82504	0.001831	-0.02655
48.444	0.000153	0.11108	0.002899	-0.002899	0.052795	-0.14999	-0.029449	0.004425	-0.033417	-0.15289	0.024719	0.012054	-0.22827	0.12741	0.005646	0.000458	0.06546	0.070038	-0.021057	0.048676	0.15961	-0.062561	-0.20172	0.010986	-0.008545	-0.006409	0.017242	-0.000153	0.063477	0.023499	0	-0.020752
48.445	0.010986	0.030518	-0.013885	-0.000153	0.05249	-0.17838	0.040436	0.005798	-0.13382	-0.056763	0.012054	0.014954	-0.43716	0.069122	-0.019531	0.005188	0.052948	0.1445	-0.029449	-0.019989	0.081177	0.22537	-0.19775	-0.041199	-0.00412	0.011139	-0.029907	-0.090637	-0.10864	0.70938	-0.00061	-0.020142
48.446	0.01297	-0.057373	-0.035248	-0.009766	0.017853	-0.18631	0.065002	-0.020142	-0.20035	-0.026855	-0.01358	0.02121	-0.22705	0.044098	-0.043182	0.006104	0.018158	0.17807	0.34836	-0.086212	0.16998	0.31784	-0.18967	-0.063019	-0.018768	0.024414	-0.049744	-0.31723	-0.6282	0.25757	0.00061	-0.021515
48.447	0.00885	-0.036774	-0.02182	-0.007019	-0.00412	-0.011139	0.056915	0.07309	-0.18707	-0.007324	0.003967	0.01236	-0.18784	0.026855	-0.066376	0.01236	0.018768	0.11444	-0.17502	-0.029907	0.1445	0.17258	-0.18478	-0.016174	-0.016174	0.030975	-0.025024	0.21866	-0.53757	-0.011597	-0.000153	-0.022583
48.448	-0.005646	-0.011749	-0.006104	0.009155	-0.008392	-0.082092	0.075378	0.033875	-0.11093	-0.002747	-0.011597	0.011597	0.032654	0.053864	-0.051575	0.005493	-0.011902	0.10742	-0.025024	0.01709	0.045166	0.091858	-0.20889	0.008545	-0.019226	0.003815	-0.001984	0.14999	-0.015259	-0.037231	0.001373	-0.025635
48.449	0.003967	-0.055847	-0.014343	0.0177	-0.028076	-0.027618	0.078125	0.025635	-0.068359	-0.012665	-0.016327	-0.000153	0.33981	0.11108	-0.010071	0.004883	-0.043182	0.11215	0.20783	-0.031738	0.033417	-0.02182	-0.19623	0.054321	-0.00946	-0.05249	0.01236	0.023804	0.21881	0.21866	0.000305	-0.029755
48.45	0.007629	-0.058899	-0.010071	0.01297	-0.014038	-0.09491	0.078888	0.021515	-0.044708	0.10819	-0.007324	-0.02121	0.22614	-0.018005	-0.006714	0.004272	-0.071259	0.11139	0.30121	-0.07431	0.021362	0.046387	-0.16083	0.092163	-0.014191	0.014191	0.059052	-0.006104	0.031433	0.20264	0.000916	-0.033112
48.451	0.019684	-0.033417	-0.003357	0.010223	0.020294	-0.027161	0.09079	0.011902	0.008545	0.21652	-0.004425	-0.027924	-0.24887	0.000153	0.03418	0.002747	-0.039978	0.068512	-0.10071	-0.076294	0.3891	0.025177	-0.19623	0.11566	-0.019836	0.019226	0.1001	-0.014038	-0.026398	-0.037231	0.003052	-0.044556
48.452	0.011597	-0.001984	-0.00412	0.00412	0.016785	0.036926	0.066376	-0.008545	0.064545	0.20767	0.003967	-0.013885	-0.65185	0.086823	0.053101	-0.002594	-0.029602	0.084076	0.10925	-0.068665	0.49072	0.08728	-0.19257	0.052185	-0.028076	0.025635	0.064087	-0.016174	-0.30823	-0.07843	0.000153	-0.029297
48.453	0.002747	0.070038	-0.007629	0.001221	0.01297	-0.15396	0.043182	-0.004425	0.1561	0.16266	-0.00885	0.010071	-0.11108	0.11749	-0.026245	0.009766	-0.011902	0.048218	0.18707	-0.041199	0.33722	0.079956	-0.16342	0.0383	-0.019226	-0.001526	-0.033569	-0.020447	-0.41107	-0.19745	0.000153	-0.029297
48.454	0.004883	0.11337	0.024872	-0.002747	0.010529	-0.35019	0.042725	-0.006866	0.21118	0.20966	-0.016327	0.031738	0.5983	0.073853	-0.075378	-0.003357	-0.001831	0.007324	0.14023	-0.061646	0.22812	-0.021667	-0.20309	0.020294	-0.019226	-0.017548	-0.031738	-0.025787	-0.4602	-0.34225	0.000763	-0.029449
48.455	0.00061	0.10819	0.047302	-0.010223	0.017548	-0.2861	0.016632	-0.013733	0.2269	0.036621	0.005188	0.065918	0.13809	-0.037231	-0.000153	-0.011139	0.011902	-0.025787	0.22827	-0.038147	0.19348	-0.037842	-0.2092	-0.012665	-0.022736	-0.013885	-0.019836	-0.075073	-0.35507	-0.35385	0.001984	-0.029602
48.456	-0.017853	0.087128	0.06897	0.016632	0.009308	-0.16174	0.078583	-0.014191	0.20767	-0.27283	0.019226	0.092316	-0.18707	-0.082703	0.041199	-0.011139	0.02182	-0.031586	0.044098	-0.042114	0.009155	-0.032654	-0.15732	-0.066071	-0.018921	-0.028534	0.006866	-0.29343	-0.18143	-0.40222	0.001984	-0.039215
48.457	-0.04303	0.11887	0.046082	0.015411	-0.059509	-0.06134	0.11765	0.011139	0.21088	-0.23941	-0.003052	0.12787	0.019684	0.02533	0.084076	-0.006104	0.034943	-0.053406	-0.10101	-0.071411	-0.10498	-0.055389	-0.19333	-0.10696	-0.00824	-0.040741	0.008392	0.09903	0.055237	-0.37033	0.003815	-0.0383
48.458	-0.058289	0.14496	0.048218	0.020142	-0.18204	0.043488	0.090485	0.017853	0.18814	-0.11688	0.00351	0.15701	0.20355	0.023499	0.050049	-0.00946	0.040741	0.002441	-0.13168	-0.053406	0.10925	-0.15381	-0.23697	-0.062408	0.006866	-0.032654	0.066376	0.18448	0.043182	-0.38055	0.002899	-0.031281
48.459	-0.037231	0.14633	0.070496	0.004578	-0.25207	0.02533	0.092621	0.038605	0.096893	-0.103	0.005493	0.17654	0.040588	-0.15442	-0.010681	0.001221	0.023499	-0.099182	-0.033722	-0.11963	0.092316	-0.10742	-0.28717	-0.050354	0.033112	-0.008545	0.039368	-0.006256	0.063324	0.008087	0.002747	-0.027771
48.46	-0.001526	0.1297	0.035706	-0.010376	-0.21652	-0.039215	0.099182	0.04303	0.01297	-0.10864	-0.005951	0.18738	0.32669	-0.074615	0.015411	0.018463	0	-0.069122	0.159	-0.1181	0.018921	-0.09903	-0.29205	-0.02533	0.018616	0.014038	0.025787	0.015411	-0.050354	0.31097	0.001678	-0.028992
